<svg width="396" height="86" viewBox="0 0 396 86" fill="none" xmlns="http://www.w3.org/2000/svg">
<g clip-path="url(#clip0_10_2)">
<path d="M65.3642 44.8597L36.6687 44.9045C35.1731 44.9045 33.9642 46.1194 33.9642 47.6149V55.5642C33.9642 57.0597 35.1761 58.2746 36.6746 58.2746H51.1701C52.6657 58.2746 53.8806 59.4866 53.8806 60.9851V65.4597C53.8806 66.3851 53.4149 67.2508 52.6328 67.7433C51.1582 68.6687 49.3313 69.5761 47.1642 70.4508C43.8119 71.806 40.3284 72.4955 36.8119 72.4955C32.7881 72.4955 28.9313 71.594 25.3552 69.8209C21.8836 68.0985 19.3104 65.5284 17.4836 61.9582C15.6119 58.2955 14.6627 53.6119 14.6627 48.0358C14.6627 43.5164 15.4657 39.2776 17.0418 35.4478C17.9373 33.3075 19.209 31.3134 20.8298 29.5164C22.3821 27.794 24.4896 26.3672 27.0925 25.2806C29.7343 24.1791 32.9582 23.6179 36.6746 23.6179C39.7134 23.6179 42.4985 24.1433 44.9522 25.1821C47.3045 26.1761 49.1134 27.4866 50.3254 29.0687C51.6239 30.7672 52.7492 33.206 53.6687 36.3194C54.0866 37.7373 55.5612 38.5582 56.9851 38.1672L65.0716 35.9493C66.4985 35.5582 67.3463 34.0955 66.9791 32.6627C65.7194 27.7552 63.8239 23.6836 61.3493 20.5612C58.8149 17.3672 55.3075 14.8567 50.9224 13.0985C46.6597 11.391 41.8507 10.5254 36.6298 10.5254C29.4627 10.5254 23.0179 12.0328 17.4687 15.006C11.8 18.0418 7.40597 22.7313 4.40896 28.9463C1.4806 35.006 0 41.6119 0 48.5851C0 55.5582 1.50149 62.1403 4.4597 67.8925C7.4806 73.7642 12.0119 78.3134 17.9254 81.4149C23.7284 84.4567 30.2537 86 37.3194 86C42.5522 86 47.7254 85.0478 52.6955 83.1672C57.6179 81.3045 62.4507 78.4985 67.0567 74.8269C67.7015 74.3134 68.0776 73.5314 68.0776 72.7075V47.5702C68.0776 46.0716 66.8627 44.8567 65.3642 44.8597Z" fill="#EA1F27"/>
<path d="M142.684 81.8776L130.908 62.6627C128.487 58.7672 125.86 55.4657 123.093 52.8149C123.036 52.7582 122.967 52.7015 122.91 52.6448C126.761 51.3313 129.869 49.4 132.164 46.8537C135.716 42.9343 137.51 38.0687 137.51 32.403C137.51 28.0627 136.448 24.0299 134.334 20.4209C132.164 16.7194 129.218 14.0925 125.561 12.6179C122.11 11.2239 117.337 10.5493 110.973 10.5493H81.2956C79.7881 10.5493 78.5762 11.7612 78.5762 13.2567V83.2925C78.5762 84.7881 79.7881 86 81.2956 86H90.1015C91.5971 86 92.809 84.7881 92.809 83.2925V57.6806C92.809 56.1851 94.0209 54.9731 95.5165 54.9731H100.418C102.955 54.9731 104.176 55.1104 104.758 55.2358C105.821 55.5104 106.884 56.0119 107.946 56.7194C108.678 57.2119 109.946 58.3194 111.785 60.7642C113.406 62.9104 115.51 66.0746 118.033 70.1642L126.899 84.6955C127.391 85.5075 128.269 85.997 129.218 85.997H140.367C142.493 85.997 143.794 83.6776 142.687 81.8746L142.684 81.8776ZM117.77 40.2388C115.794 40.994 112.905 41.3821 109.191 41.3821H95.5165C94.0209 41.3821 92.809 40.1702 92.809 38.6746V26.5672C92.809 25.0716 94.0209 23.8597 95.5165 23.8597H111.337C115.597 23.8597 118.672 24.6925 120.454 26.3493C122.179 27.9373 123.012 29.9134 123.012 32.403C123.012 34.1284 122.567 35.6806 121.654 37.1552C120.785 38.5731 119.516 39.5761 117.77 40.2388Z" fill="#EA1F27"/>
<path d="M307.385 30.3015C305.397 25.0358 302.346 20.6269 298.316 17.2328C295.164 14.5373 291.313 12.6507 286.905 11.6358C283.797 10.9045 279.525 10.5612 273.824 10.5612H249.687C248.191 10.5612 246.979 11.7731 246.979 13.2687V83.2806C246.979 84.7761 248.191 85.9881 249.687 85.9881H274.979C279.4 85.9881 283.397 85.5552 286.86 84.7194C290.412 83.8507 293.519 82.5373 296.09 80.8239C298.648 79.0985 301.036 76.7343 303.161 73.8C305.263 70.8746 307.012 67.1731 308.325 62.8C309.639 58.4597 310.313 53.4448 310.313 47.8925C310.313 41.3582 309.331 35.4418 307.388 30.3015H307.385ZM293.496 60.3343C292.421 63.6 290.925 66.206 289.051 68.0687C287.818 69.3015 286.081 70.2955 283.887 71.0149C281.567 71.7701 278.209 72.1582 273.925 72.1582H264.513C263.018 72.1582 261.806 70.9463 261.806 69.4507V27.1015C261.806 25.606 263.018 24.3821 264.513 24.3821H273.687C280.072 24.3821 283.167 25.0687 284.63 25.6269C287.463 26.7224 289.94 28.997 291.997 32.3672C294.11 35.8298 295.185 41.003 295.185 47.7433C295.185 52.7015 294.615 56.9284 293.496 60.3313V60.3343Z" fill="#EA1F27"/>
<path d="M203.576 20.4597L200.313 15.0597L202.86 19.2746C203.009 19.7343 203.263 20.1284 203.576 20.4597Z" fill="#EA1F27"/>
<path d="M200.313 15.0567L200.307 15.0478L200.313 15.0567Z" fill="#EA1F27"/>
<path d="M239.86 81.0985L224.212 55.7015L222.445 52.7343C222.29 52.403 222.155 52.0627 222.054 51.7194L214.436 39.1075L214.358 39.1612L211.504 34.3702L211.555 34.3403L206.552 26.0567V26.0508L203.17 20.4567C202.857 20.1254 202.603 19.7313 202.454 19.2716L199.907 15.0567L199.901 15.0448L195.701 8.08657C193.469 4.38807 188.084 4.4418 185.925 8.18508L152.728 63.5582C151.693 65.2866 153.603 67.2776 155.373 66.3134L156.161 65.8627L210.561 39.1045L162.176 73.8836L150.89 81.394C148.773 82.7224 149.713 85.994 152.212 85.994H174.693C176.388 85.994 177.952 85.0896 178.8 83.6239L182.457 77.2866C186.179 70.8388 195.49 70.8388 199.212 77.2866L202.872 83.6239C203.719 85.0926 205.284 85.994 206.979 85.994H237.125C239.639 85.994 241.179 83.2358 239.863 81.0955L239.86 81.0985Z" fill="#EA1F27"/>
<path d="M374.66 72.1582H337.203C335.707 72.1582 334.493 70.9463 334.493 69.4478V56.6836C334.493 55.1881 335.705 53.9731 337.203 53.9731H357.358C358.854 53.9731 360.069 52.7612 360.069 51.2627V42.9015C360.069 41.406 358.857 40.191 357.358 40.191H337.203C335.707 40.191 334.493 38.9791 334.493 37.4806V27.0985C334.493 25.603 335.705 24.3881 337.203 24.3881H356.591L357.848 18.9105C358.367 16.6507 357.406 14.3105 355.451 13.0627C352.887 11.4269 349.91 10.5582 346.869 10.5582H322.37C320.875 10.5582 319.66 11.7702 319.66 13.2687V83.2776C319.66 84.7731 320.872 85.9881 322.37 85.9881H374.657C376.152 85.9881 377.367 84.7761 377.367 83.2776V74.8687C377.367 73.3731 376.155 72.1582 374.657 72.1582H374.66Z" fill="#EA1F27"/>
<path d="M358.113 10.5582L361.6 12.7821C363.818 14.197 364.907 16.8537 364.316 19.4179L363.069 24.8597L377.367 10.5612H358.11L358.113 10.5582Z" fill="#EA1F27"/>
<path d="M385.94 0V1.41791H384.015V7.26567H382.245V1.41791H380.319V0H385.94Z" fill="#EA1F27"/>
<path d="M395.06 0V7.26567H393.29V2.90746L391.666 7.26567H390.236L388.6 2.89851V7.26567H386.83V0H388.919L390.958 5.02985L392.976 0H395.057H395.06Z" fill="#EA1F27"/>
</g>
<defs>
<clipPath id="clip0_10_2">
<rect width="395.06" height="86" fill="white"/>
</clipPath>
</defs>
</svg>
