<svg width="398" height="398" viewBox="0 0 398 398" fill="none" xmlns="http://www.w3.org/2000/svg">
<g clip-path="url(#clip0_144_4285)">
<path d="M397 0H0V397H397V0Z" fill="url(#paint0_diamond_144_4285)"/>
<g clip-path="url(#clip1_144_4285)">
<path d="M68.1771 -145.146C117.116 -71.6506 155.258 8.23891 175.642 65.7997L155.231 28.4022C159.009 41.259 170.756 68.5722 181.118 99.2596L189.398 122.336L196.528 145.482C201.021 160.572 205.807 174.42 208.295 186.058C204.862 176.09 200.824 165.638 197.347 154.652C193.777 143.695 190.51 132.26 187.025 120.928L200.501 166.47C183.693 116.796 164.13 68.1307 141.904 20.6967C116.883 -30.7009 87.7042 -82.2352 58.3611 -125.78C51.2366 -136.806 43.4219 -146.835 36.3991 -156.775C29.1418 -166.513 22.7282 -176.241 15.6836 -184.586C1.83733 -201.47 -10.0777 -216.43 -20.3468 -227.763C-41.3523 -250.041 -52.7301 -260.367 -49.2077 -252.154C-42.169 -235.872 14.7622 -170.024 71.8988 -75.4445C99.8665 -27.863 128.004 26.5149 151.512 83.2921C175.161 140.015 193.143 199.278 206.097 254.074L201.168 236.66L195.455 219.268L184.044 183.985L170.995 148.622L164.459 130.749C162.007 124.883 159.557 118.98 157.071 113.075C138.398 65.3413 114.795 18.4726 89.685 -27.6333L69.8359 -61.6921C63.4296 -73.1703 55.7208 -83.8269 48.7385 -94.9257C34.919 -117.232 19.001 -137.979 3.87815 -159.01C-27.9654 -199.861 -60.9481 -238.891 -96.4682 -272.781C-88.7413 -264.119 -81.8603 -256.438 -75.4685 -248.771L-57.0608 -225.156C-50.8204 -216.973 -43.6165 -208.799 -36.2066 -198.706C-28.738 -188.664 -20.1742 -177.47 -9.84854 -164.392C41.1346 -97.5566 83.8496 -24.6964 118.413 51.6562C154.042 127.544 180.306 198.78 192.328 273.48L197.155 294.905C200.351 309.321 204.32 322.834 207.263 337.568C210.253 353.938 211.161 367.341 212.643 379.059C213.913 390.826 215.183 401.032 215.662 411.586L221.826 491.49C221.167 492.209 220.506 489.526 219.857 485.256C221.099 498.692 221.602 512.197 221.363 525.712C221.241 540.49 221.774 555.592 222.058 568.192C220.689 569.49 219.335 570.726 218.051 575.857C209.791 737.207 167.918 899.007 89.8674 1045.56L72.4197 1078.03L53.4885 1109.44L44.0788 1125.07L33.939 1140.18L13.6991 1170.27C1.64441 1186.92 -10.5643 1203.79 -23.3911 1220.55L-43.6749 1245.19C-50.5097 1253.45 -57.2343 1261.92 -64.8162 1269.77C-79.5093 1285.81 -90.2615 1302.19 -97.0903 1309.83C-137.724 1349.05 -180.759 1385.33 -234.229 1424.49C-238.167 1427.77 -244.505 1432.63 -251.836 1438.3C-259.183 1443.95 -267.363 1450.67 -275.738 1456.67C-286.588 1462.51 -298.037 1468.9 -309.924 1475.74C-380.363 1519.93 -455.192 1554.86 -531.934 1581.66L-531.633 1581.87L-560.979 1592.19L-592.134 1601.32C-613.16 1607.99 -635.458 1612.55 -657.831 1618.03C-669.005 1620.84 -680.516 1622.43 -691.91 1624.71C-703.366 1626.65 -714.727 1629.4 -726.294 1630.69C-749.342 1633.77 -772.239 1637.44 -794.891 1639.02C-830.691 1642.4 -866.594 1644.29 -902.504 1644.67C-903.302 1644.65 -904.094 1644.68 -904.884 1644.68L-905.61 1644.67L-930.813 1644.24L-955.973 1642.61L-981.151 1640.99C-989.54 1640.39 -997.869 1639.19 -1006.24 1638.32C-1001.22 1639.87 -1000.13 1641.29 -999.056 1642.69C-986.848 1643.23 -972.406 1643.87 -958.161 1644.48C-981.421 1644.05 -1002.04 1643.31 -1018.92 1642.74C-1026.48 1641.31 -1034.3 1640.24 -1042.28 1638.59L-1066.85 1633.53L-1092.69 1628.49L-1119.48 1622.23C-1164.78 1613.7 -1209.16 1601.07 -1253.07 1587.03C-1274.69 1579.04 -1296.8 1572.24 -1317.94 1562.92L-1350 1549.73L-1381.38 1534.92C-1388.87 1532.44 -1383.44 1536.33 -1383.07 1537.52C-1419.61 1519.37 -1454.78 1498.05 -1489.24 1475.73C-1552.43 1436.16 -1611.41 1390.35 -1665.29 1338.96C-1678.92 1327.61 -1691.42 1315.01 -1704.82 1303.41L-1727.87 1274.26C-1737 1263.64 -1746.72 1253.53 -1755.42 1242.51L-1781.76 1209.45C-1787.82 1202.1 -1793.56 1193.31 -1800.32 1184.22C-1806.87 1174.98 -1814.38 1165.39 -1821.51 1154.6L-1843.96 1120.44C-1851.95 1108.57 -1858.99 1095.36 -1867.05 1082.15C-1901.28 1023.17 -1930.15 961.186 -1953.31 896.932C-1957.79 886.95 -1961.46 879.044 -1962.91 874.105C-1969.23 854.387 -1974.74 834.776 -1980.29 815.571C-1984.79 796.072 -1989.87 777.079 -1993.58 758.141C-2007.22 697.038 -2015.58 634.799 -2018.56 572.104C-2018.92 565.05 -2019.56 558.123 -2019.67 551.312L-2019.92 531.303C-2019.93 518.249 -2020.62 505.785 -2020.11 494.008C-2019.1 470.463 -2019.24 449.554 -2017.43 432.183C-2016.18 411.348 -2017.62 411.67 -2020.54 423.715C-2022.54 432.23 -2024.29 440.797 -2025.79 449.405L-2030.65 485.696C-2032.62 498.747 -2033.55 512.357 -2034.58 525.316C-2035.48 538.255 -2036.92 550.579 -2037.3 560.932C-2038.18 581.665 -2039.15 594.827 -2040.35 590.384C-2050.73 543.241 -2053.32 476.289 -2044.95 392.532C-2039.84 350.778 -2033.37 304.622 -2021.34 255.122C-2016.16 230.181 -2008.41 204.765 -2001.18 178.071C-1992.57 151.813 -1984.46 124.189 -1973.49 96.4171C-1949.92 35.1379 -1994.15 138.965 -1995.91 141.108C-1993.46 128.994 -1990.24 117.035 -1986.28 105.302C-1978.36 85.2853 -1970.76 65.1377 -1961.41 45.7321C-1956.07 34.2356 -1951.16 22.5568 -1945.5 11.2356L-1928.14 -22.5569L-1937.54 -4.92321C-1956.66 31.2398 -1972.16 67.7853 -1985.17 101.928C-1980.72 88.5952 -1976.14 73.6654 -1970.08 58.5247C-1963.48 42.403 -1956.95 25.3698 -1949.78 9.00462L-1928.33 -37.7642C-2016 116.849 -2067.81 292.266 -2075.72 469.512C-2079.86 558.037 -2074.87 647.053 -2058.5 733.885C-2042.45 820.78 -2016.77 905.479 -1981.93 986.435C-2033.46 864.366 -2061.06 735.205 -2067.27 611.222C-2051.96 841.281 -1967.06 1066.3 -1823.22 1249.84C-1831.6 1240.11 -1838.97 1229.58 -1846.67 1219.33C-1854.21 1208.95 -1862.2 1198.89 -1869.38 1188.24C-1883.49 1166.8 -1898.42 1145.86 -1911.13 1123.49C-1938.21 1079.77 -1960.92 1033.44 -1981.93 986.435C-1945.81 1073.01 -1897.62 1155.59 -1841.07 1231.66C-1784.69 1307.97 -1718 1376.16 -1646.53 1436.32C-1745.62 1360.44 -1839.23 1258.37 -1912.15 1140.59C-1866.07 1217.37 -1809.6 1288.78 -1746.26 1353.24C-1722.76 1378.47 -1697.29 1401.67 -1674.03 1423.44C-1649.82 1444.07 -1628.07 1463.65 -1609.17 1478.35C-1679.9 1424.89 -1733.76 1373.72 -1781.99 1323.29C-1680.05 1436.2 -1555.16 1531.98 -1413.01 1600.52C-1490.34 1563.4 -1566.91 1517.76 -1636.72 1463.16C-1706.55 1408.69 -1770.03 1346.09 -1822.76 1278.69C-1816.08 1286.14 -1809.88 1293.98 -1802.87 1301.2L-1781.99 1323.29C-1874.78 1221.38 -1947.64 1103.89 -1999.15 978.728C-2024.84 916.102 -2045.52 851.556 -2060.01 785.656C-2074.48 719.866 -2083.44 652.904 -2086.79 585.458C-2087.1 657.67 -2074.71 748.669 -2049.71 838.807C-2024.47 928.962 -1986.94 1017.66 -1950.03 1091.54C-2021.31 963.168 -2069.08 817.026 -2086.7 664.918C-2104.56 512.884 -2092.29 355.09 -2049.74 205.399C-2007.48 55.6064 -1934.73 -85.5893 -1839.43 -206.546C-1792.16 -266.677 -1739.41 -322.333 -1681.87 -372.78C-1625.23 -422.149 -1564.23 -466.262 -1499.63 -504.557L-1533.73 -484.716C-1545.1 -478.097 -1555.9 -470.542 -1567 -463.488C-1589.39 -449.609 -1610.33 -433.595 -1631.74 -418.264C-1673.44 -386.133 -1714.1 -352.354 -1751.42 -314.955C-1789.58 -278.4 -1824.23 -238.285 -1857.57 -197.033C-1873.39 -175.739 -1890.14 -155.04 -1904.65 -132.716C-1912.06 -121.664 -1919.87 -110.848 -1926.96 -99.5566L-1947.89 -65.4355C-1937.14 -82.4548 -1926.87 -101.574 -1914.21 -120.027L-1898.8 -143.68C-1932.14 -95.2092 -1961.85 -44.3828 -1987.68 8.37606C-1999.46 32.5487 -2010.4 57.112 -2020.47 82.0211C-2001.83 35.0849 -1980.36 -10.7202 -1956.17 -55.1396C-1909.48 -139.176 -1853.43 -217.792 -1789.12 -289.473C-1779.74 -300.522 -1770.3 -309.582 -1762.22 -318.141L-1740.49 -340.915C-1727.46 -354.048 -1717.57 -363.431 -1711.03 -370.431C-1697.81 -384.295 -1696.9 -387.382 -1703.58 -383.512C-1710.26 -379.651 -1724.53 -368.85 -1741.56 -354.964C-1758.06 -340.563 -1776.98 -322.72 -1793.49 -305.68C-1957.63 -132.458 -2062.83 79.3492 -2105.47 297.385C-2148.19 515.517 -2130.47 741.053 -2051.83 946.478C-2047.53 958.634 -2042.16 970.371 -2037.09 982.225C-2031.9 994.031 -2027.09 1006 -2021.56 1017.66C-2010.02 1040.74 -1999.55 1064.36 -1986.63 1086.76L-1967.93 1120.68L-1947.71 1153.75L-1937.56 1170.27L-1926.66 1186.31L-1904.84 1218.36C-1844.37 1302.27 -1773.66 1378.8 -1694.85 1445.78C-1650.63 1484.01 -1594.45 1526.22 -1539.89 1559.93L-1499.76 1583.74C-1486.67 1591.01 -1473.86 1597.46 -1462.02 1603.72L-1444.84 1612.63L-1428.72 1620.04L-1401.52 1632.19C-1318.15 1666.92 -1229.36 1692.04 -1137.52 1707.42C-1045.72 1722.87 -950.673 1728.51 -854.641 1721.98L-818.586 1719.44L-782.508 1715.28L-764.428 1713.2L-746.401 1710.33L-710.272 1704.46C-662.279 1694.99 -614.076 1684.19 -566.681 1668.83C-519.016 1654.52 -472.246 1635.92 -425.967 1615.46C-403.134 1604.49 -379.892 1594.16 -357.593 1581.62C-346.4 1575.47 -334.911 1569.82 -323.892 1563.25L-290.799 1543.45C-211.721 1496.02 -137.706 1437.12 -70.7677 1370.16C-3.99303 1303.1 56.2589 1227.85 105.199 1145.46L123.379 1114.47C129.526 1104.19 134.631 1093.33 140.309 1082.78C145.717 1072.1 151.683 1061.68 156.628 1050.78L171.645 1018.16C176.853 1007.36 181.314 996.267 185.713 985.144L199.086 951.86L210.85 918.036C214.754 906.754 218.808 895.527 221.94 884.021L231.98 849.739C235.5 838.368 237.757 826.678 240.707 815.179C243.354 803.606 246.59 792.162 248.744 780.511L255.419 745.627C257.857 734.049 259.497 722.355 261.109 710.668L266.094 675.682L269.441 640.615C270.552 628.941 271.79 617.275 272.122 605.586C277.35 512.234 272.61 419.398 257.216 330.116C242.101 242.543 217.78 156.944 184.655 74.7277C120.258 -86.3843 23.8516 -222.956 -80.0111 -331.833C-38.3731 -286.048 19.7798 -219.042 68.1771 -145.146ZM-2061.24 174.836C-2074.65 219.338 -2085.56 264.515 -2093.91 310.154C-2085.56 263.724 -2074.95 218.357 -2061.24 174.836ZM-2004.09 1035.8C-2008.64 1024.61 -2013.55 1013.92 -2017.37 1002.97L-2028.94 970.64L-2034.74 954.712L-2039.94 938.551C-2043.47 927.686 -2047.13 916.868 -2050.94 906.098C-2071.09 846.147 -2086.58 784.669 -2097.28 722.205C-2108.1 659.848 -2112.77 596.697 -2113.43 534.235C-2114.11 502.977 -2112.3 471.883 -2110.76 441.024L-2106.46 395.008C-2105.21 379.714 -2102.42 364.63 -2100.48 349.537C-2098.59 337.179 -2096.53 324.904 -2094.34 312.685C-2102.55 357.984 -2108.07 403.687 -2110.86 449.553C-2106.63 383.412 -2096.68 317.669 -2081.12 253.057C-2076.99 237.382 -2073.62 221.501 -2068.75 205.893L-2054.17 158.627L-2036.82 110.974C-2030.78 94.9057 -2023.52 78.9819 -2016.68 62.5039C-2021.01 74.9711 -2025.59 87.3517 -2030.42 99.6375C-2035.69 113.696 -2040.6 129.166 -2045.74 143.878C-2051.06 158.542 -2054.95 172.963 -2058.15 184.981C-2061.35 196.999 -2063.65 206.663 -2064.37 212.248C-2062.45 205.308 -2060.34 198.426 -2058.29 191.512C-2060.47 198.98 -2062.57 206.468 -2064.6 213.975C-2064.59 213.577 -2064.46 212.86 -2064.37 212.248C-2109.29 376.189 -2118.94 549.032 -2094.37 715.402C-2070.19 881.939 -2010.21 1041.6 -1922.36 1180.8C-1961 1127.9 -1985.85 1080.48 -2004.09 1035.8ZM-1209.18 1658.99C-1276.29 1640.65 -1341.54 1616.4 -1404.17 1586.51C-1411.17 1583.34 -1418.1 1579.97 -1425 1576.57C-1574.31 1501.54 -1704.51 1395.2 -1807.79 1268.91C-1773.37 1310.49 -1735.38 1348.96 -1695.84 1385.49C-1650.38 1427.67 -1600.97 1465.48 -1549.31 1499.58C-1446.25 1568.43 -1331.64 1619.09 -1212.61 1652.72C-1222.9 1650.37 -1233.92 1647.7 -1245.47 1644.75C-1257.62 1641.86 -1269.62 1638.43 -1281.44 1634.47L-1266.01 1639.76L-1250.32 1644.32L-1218.98 1653.44C-1198 1659.22 -1176.68 1663.84 -1155.53 1669.01C-1134.09 1672.89 -1112.82 1677.65 -1091.25 1680.83C-1075.17 1682.94 -1059.18 1685.66 -1043.09 1687.56C-1098.49 1682.45 -1154.02 1673.58 -1209.18 1658.99ZM-187.211 1455.73C-202.195 1467.34 -217.747 1478.36 -233.026 1489.69C-245.631 1498.87 -258.815 1507.26 -271.517 1515.97C-275.121 1518.82 -278.995 1521.76 -284.047 1525.23C-289.189 1528.58 -295.695 1532.16 -304.271 1536.74C-365.284 1574.07 -425.422 1602.95 -471.782 1619.19C-559.559 1651.75 -647.922 1674.29 -734.651 1687.1C-821.342 1700 -906.482 1703.05 -987.081 1695.7C-1024.78 1691.68 -1015.11 1691.3 -995.518 1692.15L-1026.39 1689.19C-1013.11 1690.05 -999.873 1691.11 -986.618 1691.71L-946.797 1692.42C-956.333 1692.42 -979.334 1692.59 -995.518 1692.15C-860.779 1702.35 -724.451 1689.74 -594.89 1655.21C-465.278 1620.61 -343.235 1563.02 -235.397 1489.04C-252.703 1500.95 -260.795 1507.25 -268.349 1513.43C-256.692 1505.51 -244.616 1498.01 -233.026 1489.69C-217.767 1478.16 -202.248 1466.98 -187.304 1455.3L-143.839 1419.54C-157.943 1431.72 -172.573 1443.67 -187.211 1455.73Z" fill="url(#paint1_diamond_144_4285)" fill-opacity="0.02"/>
</g>
<g filter="url(#filter0_d_144_4285)">
<path d="M265 143.299C265.033 152.569 262.561 161.674 257.848 169.663C255.586 173.515 252.838 177.057 249.682 180.236C239.915 190.091 226.595 195.62 212.723 195.586H212.337V195.752H164.365C158.659 195.708 153.991 200.288 153.936 206.004V206.17C153.936 207.582 154.201 208.984 154.741 210.286C155.768 212.813 157.765 214.822 160.281 215.87C161.573 216.411 162.963 216.687 164.354 216.665H185.288C189.482 216.643 193.642 217.47 197.505 219.104C205.042 222.271 211.035 228.263 214.202 235.801C217.458 243.603 217.458 252.388 214.202 260.19C212.624 263.909 210.351 267.286 207.492 270.144C204.623 273.002 201.235 275.287 197.505 276.887C193.642 278.553 189.482 279.392 185.288 279.37H138.839V258.446H185.288C191.049 258.446 195.717 253.789 195.717 248.028C195.717 242.268 191.06 237.6 185.299 237.589H164.354C160.171 237.622 156.022 236.772 152.181 235.117C144.677 231.894 138.695 225.902 135.484 218.375C133.818 214.524 132.979 210.363 133.001 206.159C132.968 201.976 133.818 197.827 135.484 193.986C138.706 186.493 144.688 180.512 152.181 177.289C156.033 175.623 160.171 174.784 164.365 174.806H209.435L212.723 174.63C216.917 174.663 221.077 173.824 224.94 172.191C232.477 169.034 238.47 163.031 241.637 155.494C243.27 151.631 244.098 147.482 244.076 143.288C244.098 139.105 243.27 134.956 241.637 131.116C240.059 127.396 237.774 124.02 234.927 121.161C232.058 118.292 228.67 116.008 224.94 114.407C221.088 112.741 216.928 111.902 212.723 111.935H202.294V169.641H181.216V91.0006H212.712C217.413 90.9785 222.082 91.6075 226.606 92.8546C235.347 95.2714 243.292 99.9175 249.682 106.34C252.838 109.519 255.575 113.072 257.837 116.913C262.55 124.902 265.011 134.007 264.989 143.277L265 143.299Z" fill="white"/>
<path d="M258.203 264.251C258.214 266.027 257.861 267.793 257.143 269.426C256.459 270.993 255.488 272.417 254.263 273.62C253.027 274.823 251.581 275.783 249.992 276.467C246.66 277.88 242.896 277.88 239.564 276.467C236.385 275.121 233.847 272.605 232.49 269.426C231.077 266.127 231.077 262.408 232.49 259.108C233.836 255.919 236.374 253.38 239.564 252.034C242.896 250.621 246.66 250.621 249.992 252.034C251.581 252.707 253.027 253.678 254.263 254.881C255.488 256.095 256.47 257.53 257.143 259.108C257.85 260.73 258.203 262.485 258.203 264.251Z" fill="#CB4A68"/>
</g>
<g filter="url(#filter1_d_144_4285)">
<path d="M137.392 313V310.998H139.602C140.122 310.998 140.573 310.898 140.954 310.699C141.344 310.5 141.643 310.205 141.851 309.815C142.059 309.416 142.163 308.935 142.163 308.372C142.163 307.817 142.055 307.349 141.838 306.968C141.63 306.578 141.335 306.283 140.954 306.084C140.573 305.885 140.122 305.785 139.602 305.785H137.288V303.783H139.615C140.326 303.783 140.98 303.896 141.578 304.121C142.176 304.338 142.696 304.65 143.138 305.057C143.58 305.464 143.922 305.95 144.165 306.513C144.416 307.076 144.542 307.7 144.542 308.385C144.542 309.078 144.416 309.707 144.165 310.27C143.922 310.833 143.58 311.319 143.138 311.726C142.696 312.133 142.176 312.45 141.578 312.675C140.989 312.892 140.343 313 139.641 313H137.392ZM135.819 313V303.783H138.146V313H135.819ZM145.709 313V303.783H148.036V313H145.709ZM147.555 313V311.037H152.547V313H147.555ZM147.555 309.256V307.345H152.079V309.256H147.555ZM147.555 305.746V303.783H152.469V305.746H147.555ZM153.859 313V303.783H156.186V313H153.859ZM155.705 309.555V307.592H160.268V309.555H155.705ZM155.705 305.746V303.783H160.476V305.746H155.705ZM161.679 313V303.783H164.006V313H161.679ZM165.64 313V303.783H167.265L167.967 305.668V313H165.64ZM171.997 313L166.615 306.162L167.265 303.783L172.66 310.621L171.997 313ZM171.997 313L171.399 311.063V303.783H173.726V313H171.997ZM175.365 313V303.783H177.692V313H175.365ZM177.211 313V311.037H182.203V313H177.211ZM177.211 309.256V307.345H181.735V309.256H177.211ZM177.211 305.746V303.783H182.125V305.746H177.211ZM185.088 313V310.998H187.298C187.818 310.998 188.269 310.898 188.65 310.699C189.04 310.5 189.339 310.205 189.547 309.815C189.755 309.416 189.859 308.935 189.859 308.372C189.859 307.817 189.751 307.349 189.534 306.968C189.326 306.578 189.032 306.283 188.65 306.084C188.269 305.885 187.818 305.785 187.298 305.785H184.984V303.783H187.311C188.022 303.783 188.676 303.896 189.274 304.121C189.872 304.338 190.392 304.65 190.834 305.057C191.276 305.464 191.619 305.95 191.861 306.513C192.113 307.076 192.238 307.7 192.238 308.385C192.238 309.078 192.113 309.707 191.861 310.27C191.619 310.833 191.276 311.319 190.834 311.726C190.392 312.133 189.872 312.45 189.274 312.675C188.685 312.892 188.039 313 187.337 313H185.088ZM183.515 313V303.783H185.842V313H183.515ZM198.69 313.143C197.919 313.143 197.247 313.026 196.675 312.792C196.112 312.558 195.596 312.19 195.128 311.687L196.597 310.205C196.918 310.543 197.26 310.803 197.624 310.985C197.988 311.158 198.4 311.245 198.859 311.245C199.249 311.245 199.548 311.18 199.756 311.05C199.973 310.911 200.081 310.725 200.081 310.491C200.081 310.274 200.003 310.097 199.847 309.958C199.691 309.811 199.483 309.685 199.223 309.581C198.972 309.468 198.69 309.364 198.378 309.269C198.075 309.165 197.767 309.044 197.455 308.905C197.152 308.758 196.87 308.58 196.61 308.372C196.359 308.164 196.155 307.904 195.999 307.592C195.843 307.28 195.765 306.894 195.765 306.435C195.765 305.846 195.904 305.343 196.181 304.927C196.467 304.511 196.862 304.19 197.364 303.965C197.867 303.74 198.452 303.627 199.119 303.627C199.787 303.627 200.402 303.74 200.965 303.965C201.529 304.19 201.992 304.502 202.356 304.901L200.874 306.37C200.597 306.093 200.315 305.885 200.029 305.746C199.743 305.607 199.431 305.538 199.093 305.538C198.773 305.538 198.521 305.594 198.339 305.707C198.157 305.82 198.066 305.98 198.066 306.188C198.066 306.396 198.144 306.565 198.3 306.695C198.456 306.825 198.66 306.942 198.911 307.046C199.171 307.141 199.453 307.241 199.756 307.345C200.068 307.449 200.376 307.57 200.679 307.709C200.983 307.848 201.26 308.025 201.511 308.242C201.771 308.459 201.979 308.732 202.135 309.061C202.291 309.39 202.369 309.789 202.369 310.257C202.369 311.176 202.044 311.886 201.394 312.389C200.753 312.892 199.852 313.143 198.69 313.143ZM208.11 313.169C207.399 313.169 206.745 313.048 206.147 312.805C205.549 312.562 205.024 312.224 204.574 311.791C204.132 311.358 203.785 310.851 203.534 310.27C203.282 309.681 203.157 309.048 203.157 308.372C203.157 307.696 203.278 307.072 203.521 306.5C203.772 305.919 204.119 305.412 204.561 304.979C205.003 304.546 205.523 304.212 206.121 303.978C206.719 303.735 207.373 303.614 208.084 303.614C208.794 303.614 209.449 303.735 210.047 303.978C210.645 304.212 211.165 304.546 211.607 304.979C212.049 305.412 212.391 305.919 212.634 306.5C212.885 307.081 213.011 307.709 213.011 308.385C213.011 309.061 212.885 309.689 212.634 310.27C212.391 310.851 212.049 311.362 211.607 311.804C211.165 312.237 210.645 312.575 210.047 312.818C209.457 313.052 208.812 313.169 208.11 313.169ZM208.084 311.089C208.604 311.089 209.054 310.976 209.436 310.751C209.817 310.526 210.112 310.209 210.32 309.802C210.528 309.395 210.632 308.918 210.632 308.372C210.632 307.973 210.571 307.609 210.45 307.28C210.337 306.951 210.168 306.669 209.943 306.435C209.717 306.192 209.449 306.006 209.137 305.876C208.825 305.746 208.474 305.681 208.084 305.681C207.564 305.681 207.113 305.794 206.732 306.019C206.35 306.236 206.056 306.548 205.848 306.955C205.64 307.362 205.536 307.835 205.536 308.372C205.536 308.788 205.592 309.165 205.705 309.503C205.826 309.832 205.999 310.118 206.225 310.361C206.45 310.595 206.719 310.777 207.031 310.907C207.343 311.028 207.694 311.089 208.084 311.089ZM214.174 313V303.783H216.501V313H214.174ZM216.02 313V310.998H220.466V313H216.02ZM225.029 313.143C224.249 313.143 223.56 312.983 222.962 312.662C222.373 312.333 221.913 311.878 221.584 311.297C221.255 310.716 221.09 310.058 221.09 309.321V303.783H223.404V309.49C223.404 309.819 223.473 310.105 223.612 310.348C223.759 310.582 223.954 310.764 224.197 310.894C224.448 311.015 224.726 311.076 225.029 311.076C225.341 311.076 225.614 311.015 225.848 310.894C226.082 310.764 226.268 310.582 226.407 310.348C226.546 310.114 226.615 309.832 226.615 309.503V303.783H228.955V309.334C228.955 310.071 228.79 310.729 228.461 311.31C228.132 311.882 227.672 312.333 227.083 312.662C226.502 312.983 225.818 313.143 225.029 313.143ZM232.648 313V303.848H234.975V313H232.648ZM229.827 305.785V303.783H237.796V305.785H229.827ZM238.854 313V303.783H241.181V313H238.854ZM247.3 313.169C246.589 313.169 245.935 313.048 245.337 312.805C244.739 312.562 244.215 312.224 243.764 311.791C243.322 311.358 242.975 310.851 242.724 310.27C242.473 309.681 242.347 309.048 242.347 308.372C242.347 307.696 242.468 307.072 242.711 306.5C242.962 305.919 243.309 305.412 243.751 304.979C244.193 304.546 244.713 304.212 245.311 303.978C245.909 303.735 246.563 303.614 247.274 303.614C247.985 303.614 248.639 303.735 249.237 303.978C249.835 304.212 250.355 304.546 250.797 304.979C251.239 305.412 251.581 305.919 251.824 306.5C252.075 307.081 252.201 307.709 252.201 308.385C252.201 309.061 252.075 309.689 251.824 310.27C251.581 310.851 251.239 311.362 250.797 311.804C250.355 312.237 249.835 312.575 249.237 312.818C248.648 313.052 248.002 313.169 247.3 313.169ZM247.274 311.089C247.794 311.089 248.245 310.976 248.626 310.751C249.007 310.526 249.302 310.209 249.51 309.802C249.718 309.395 249.822 308.918 249.822 308.372C249.822 307.973 249.761 307.609 249.64 307.28C249.527 306.951 249.358 306.669 249.133 306.435C248.908 306.192 248.639 306.006 248.327 305.876C248.015 305.746 247.664 305.681 247.274 305.681C246.754 305.681 246.303 305.794 245.922 306.019C245.541 306.236 245.246 306.548 245.038 306.955C244.83 307.362 244.726 307.835 244.726 308.372C244.726 308.788 244.782 309.165 244.895 309.503C245.016 309.832 245.19 310.118 245.415 310.361C245.64 310.595 245.909 310.777 246.221 310.907C246.533 311.028 246.884 311.089 247.274 311.089ZM253.365 313V303.783H254.99L255.692 305.668V313H253.365ZM259.722 313L254.34 306.162L254.99 303.783L260.385 310.621L259.722 313ZM259.722 313L259.124 311.063V303.783H261.451V313H259.722Z" fill="white"/>
</g>
</g>
<defs>
<filter id="filter0_d_144_4285" x="118" y="76" width="162" height="218.37" filterUnits="userSpaceOnUse" color-interpolation-filters="sRGB">
<feFlood flood-opacity="0" result="BackgroundImageFix"/>
<feColorMatrix in="SourceAlpha" type="matrix" values="0 0 0 0 0 0 0 0 0 0 0 0 0 0 0 0 0 0 127 0" result="hardAlpha"/>
<feOffset/>
<feGaussianBlur stdDeviation="7.5"/>
<feComposite in2="hardAlpha" operator="out"/>
<feColorMatrix type="matrix" values="0 0 0 0 0.0958333 0 0 0 0 0.0634896 0 0 0 0 0.0958333 0 0 0 1 0"/>
<feBlend mode="normal" in2="BackgroundImageFix" result="effect1_dropShadow_144_4285"/>
<feBlend mode="normal" in="SourceGraphic" in2="effect1_dropShadow_144_4285" result="shape"/>
</filter>
<filter id="filter1_d_144_4285" x="120.819" y="288.614" width="155.632" height="39.5549" filterUnits="userSpaceOnUse" color-interpolation-filters="sRGB">
<feFlood flood-opacity="0" result="BackgroundImageFix"/>
<feColorMatrix in="SourceAlpha" type="matrix" values="0 0 0 0 0 0 0 0 0 0 0 0 0 0 0 0 0 0 127 0" result="hardAlpha"/>
<feOffset/>
<feGaussianBlur stdDeviation="7.5"/>
<feComposite in2="hardAlpha" operator="out"/>
<feColorMatrix type="matrix" values="0 0 0 0 0.0958333 0 0 0 0 0.0634896 0 0 0 0 0.0958333 0 0 0 1 0"/>
<feBlend mode="normal" in2="BackgroundImageFix" result="effect1_dropShadow_144_4285"/>
<feBlend mode="normal" in="SourceGraphic" in2="effect1_dropShadow_144_4285" result="shape"/>
</filter>
<radialGradient id="paint0_diamond_144_4285" cx="0" cy="0" r="1" gradientUnits="userSpaceOnUse" gradientTransform="translate(59.221 51.5442) rotate(45) scale(656.051 740.899)">
<stop stop-color="#251725"/>
<stop offset="1"/>
</radialGradient>
<radialGradient id="paint1_diamond_144_4285" cx="0" cy="0" r="1" gradientUnits="userSpaceOnUse" gradientTransform="translate(294.417 647.969) rotate(-175.778) scale(3967.59 4480.73)">
<stop stop-color="#F9F9F9"/>
<stop offset="1" stop-color="#CB4A68"/>
</radialGradient>
<clipPath id="clip0_144_4285">
<rect width="397.32" height="397.32" fill="white"/>
</clipPath>
<clipPath id="clip1_144_4285">
<rect width="2400.91" height="2400.96" fill="white" transform="translate(779.387 660.809) rotate(139.427)"/>
</clipPath>
</defs>
</svg>
